<?xml version="1.0" standalone="no"?>
<!DOCTYPE svg PUBLIC "-//W3C//DTD SVG 20010904//EN"
 "http://www.w3.org/TR/2001/REC-SVG-20010904/DTD/svg10.dtd">
<svg version="1.0" xmlns="http://www.w3.org/2000/svg"
 width="301.000000pt" height="301.000000pt" viewBox="0 0 301.000000 301.000000"
 preserveAspectRatio="xMidYMid meet">

<g transform="translate(0.000000,301.000000) scale(0.100000,-0.100000)"
fill="#000000" stroke="none">
<path d="M1378 1888 l-3 -73 -25 64 c-25 63 -43 82 -61 64 -14 -14 32 -323 48
-323 9 0 13 16 14 48 l1 47 19 -42 c11 -24 26 -43 34 -43 13 0 15 27 15 165 0
157 -1 165 -20 165 -17 0 -19 -8 -22 -72z"/>
<path d="M1440 1945 c0 -9 9 -15 25 -15 l25 0 0 -150 c0 -143 1 -150 20 -150
19 0 20 7 20 150 l0 150 25 0 c16 0 25 6 25 15 0 12 -14 15 -70 15 -56 0 -70
-3 -70 -15z"/>
<path d="M1622 1903 c-36 -168 -54 -274 -49 -279 14 -14 37 7 38 33 1 28 1 28
10 -4 5 -18 16 -33 24 -33 12 0 15 14 15 65 0 59 4 71 36 118 28 41 34 58 30
82 -7 36 -39 65 -71 65 -20 0 -25 -7 -33 -47z m58 -32 c0 -16 -9 -39 -21 -52
l-20 -24 6 40 c9 59 15 76 26 70 5 -4 9 -19 9 -34z"/>
<path d="M1163 1908 c-30 -11 -50 -24 -48 -31 2 -7 18 -59 35 -117 17 -58 36
-119 41 -136 l10 -32 41 13 c49 14 66 38 20 29 -28 -6 -30 -4 -41 39 -15 63
-14 74 9 80 31 8 24 27 -8 21 -26 -5 -28 -3 -40 40 -15 58 -15 66 1 66 21 0
47 24 39 36 -5 9 -21 6 -59 -8z"/>
<path d="M1774 1828 c-15 -40 -39 -104 -55 -143 -18 -46 -24 -73 -17 -80 9 -9
32 12 40 37 7 21 38 -5 38 -33 0 -47 27 -36 34 14 17 124 27 249 22 262 -13
34 -35 13 -62 -57z m16 -118 c0 -29 -4 -40 -15 -40 -8 0 -15 3 -15 7 0 9 23
73 27 73 2 0 3 -18 3 -40z"/>
<path d="M1025 1839 c-22 -17 -43 -34 -48 -38 -4 -4 7 -39 24 -77 17 -38 42
-92 54 -121 l24 -52 45 15 c25 9 48 19 50 22 2 4 -3 21 -10 39 -9 22 -19 31
-28 27 -12 -5 -13 -11 -4 -30 9 -18 8 -28 0 -36 -8 -8 -14 -5 -21 13 -5 13
-25 64 -46 113 -26 63 -33 92 -26 99 8 8 15 6 23 -6 9 -11 18 -14 27 -8 12 8
12 14 1 40 -7 17 -15 31 -19 30 -3 0 -24 -14 -46 -30z"/>
<path d="M1886 1727 c-20 -67 -39 -130 -42 -140 -4 -13 4 -21 28 -31 38 -17
65 -3 36 18 -16 11 -14 20 18 122 39 127 40 130 16 143 -17 9 -22 -2 -56 -112z"/>
<path d="M390 1570 c0 -24 -18 -26 -35 -4 -11 15 -16 15 -56 3 -24 -8 -44 -18
-44 -24 0 -26 84 -38 287 -43 114 -2 218 -2 230 1 29 8 55 45 30 43 -10 -1
-17 7 -17 19 0 14 -8 21 -26 23 -21 2 -29 -3 -39 -27 -17 -42 -44 -42 -35 -1
6 30 6 30 -34 30 -37 0 -41 -2 -41 -25 0 -16 -6 -25 -15 -25 -9 0 -15 9 -15
25 0 23 -4 25 -45 25 -34 0 -47 -5 -55 -20 -6 -11 -15 -20 -20 -20 -6 0 -10 9
-10 20 0 16 -7 20 -30 20 -23 0 -30 -4 -30 -20z"/>
<path d="M2215 1580 c-3 -5 -4 -14 0 -19 12 -21 -19 -22 -34 -2 -11 14 -23 20
-34 15 -21 -8 -21 -13 3 -44 l19 -25 248 0 c192 1 257 4 288 15 22 8 39 20 38
25 0 6 -20 16 -44 24 -38 12 -43 12 -54 -3 -17 -22 -35 -20 -35 4 0 16 -7 20
-30 20 -23 0 -30 -4 -30 -20 0 -11 -4 -20 -10 -20 -5 0 -14 9 -20 20 -8 15
-21 20 -55 20 -41 0 -45 -2 -45 -25 0 -32 -27 -34 -32 -2 -2 18 -10 23 -46 25
-41 3 -43 2 -33 -17 15 -27 14 -41 -3 -41 -7 0 -19 14 -26 30 -9 21 -19 30
-36 30 -12 0 -26 -4 -29 -10z"/>
<path d="M1036 1485 c-87 -31 -135 -109 -136 -221 0 -114 35 -186 110 -224 37
-19 60 -20 495 -20 433 0 458 1 494 20 80 40 111 104 110 225 -1 83 -14 124
-54 167 -64 68 -62 68 -545 67 -344 0 -443 -3 -474 -14z m140 -85 c56 -32 104
-82 104 -109 0 -20 -27 -61 -52 -79 -14 -10 -18 -27 -18 -73 l0 -59 -50 0
c-50 0 -50 0 -51 33 -4 214 -3 317 6 317 6 0 33 -13 61 -30z m397 9 c55 -28
87 -54 109 -87 20 -31 16 -56 -17 -92 l-24 -25 35 -58 c19 -32 34 -60 34 -62
0 -3 -11 -5 -25 -5 -17 0 -30 9 -42 33 l-18 32 -3 -32 c-3 -32 -5 -33 -48 -33
-43 0 -44 0 -44 34 0 19 -6 36 -12 39 -10 3 -10 9 0 26 15 25 17 207 2 216
-13 8 -13 35 0 35 6 0 30 -10 53 -21z m-103 -14 c0 -10 -11 -15 -35 -15 l-35
0 0 -85 0 -85 35 0 c24 0 35 -5 35 -15 0 -10 -11 -15 -35 -15 -33 0 -35 -2
-35 -35 0 -33 2 -35 35 -35 24 0 35 -5 35 -15 0 -12 -16 -15 -87 -15 l-88 0 0
165 0 165 88 0 c71 0 87 -3 87 -15z m360 -32 l1 -48 42 48 c31 35 49 47 70 47
27 0 27 -1 -32 -76 l-60 -75 50 -84 c27 -46 49 -86 49 -89 0 -3 -10 -6 -23 -6
-17 0 -30 14 -57 63 l-35 62 -3 -62 -3 -63 -43 0 c-42 0 -44 1 -48 34 -2 19
-2 93 0 165 l4 131 44 0 44 0 0 -47z m-796 -89 c19 -7 21 -40 4 -47 -29 -10
-53 25 -31 46 8 8 8 8 27 1z m974 -18 c5 -24 -10 -38 -31 -30 -20 7 -23 40 -4
47 19 8 32 2 35 -17z"/>
<path d="M1210 1290 c0 -37 2 -41 15 -30 8 7 15 20 15 30 0 10 -7 23 -15 30
-13 11 -15 7 -15 -30z"/>
<path d="M1620 1287 l0 -41 20 20 c22 21 19 48 -6 58 -11 4 -14 -4 -14 -37z"/>
</g>
</svg>
